<?xml version="1.0" encoding="UTF-8" standalone="no"?>
<!DOCTYPE svg PUBLIC "-//W3C//DTD SVG 1.1//EN"
 "http://www.w3.org/Graphics/SVG/1.1/DTD/svg11.dtd">
<!-- Generated by graphviz version 2.36.0 (20140111.2315)
 -->
<!-- Title: controllers_diagram Pages: 1 -->
<svg width="350pt" height="279pt"
 viewBox="0.00 0.00 350.00 279.00" xmlns="http://www.w3.org/2000/svg" xmlns:xlink="http://www.w3.org/1999/xlink">
<g id="graph0" class="graph" transform="scale(1 1) rotate(0) translate(4 275)">
<title>controllers_diagram</title>
<polygon fill="none" stroke="none" points="-4,4 -4,-275 346,-275 346,4 -4,4"/>
<!-- _diagram_info -->
<g id="node1" class="node"><title>_diagram_info</title>
<text text-anchor="start" x="136" y="-127.6" font-family="Times,serif" font-size="13.00">Controllers diagram</text>
<text text-anchor="start" x="136" y="-113.6" font-family="Times,serif" font-size="13.00">Date: Feb 13 2016 &#45; 08:31</text>
<text text-anchor="start" x="136" y="-99.6" font-family="Times,serif" font-size="13.00">Migration version: 20160213011236</text>
<text text-anchor="start" x="136" y="-85.6" font-family="Times,serif" font-size="13.00">Generated by RailRoady 1.4.2</text>
<text text-anchor="start" x="136" y="-71.6" font-family="Times,serif" font-size="13.00">http://railroady.prestonlee.com</text>
</g>
<!-- ApplicationController -->
<g id="node2" class="node"><title>ApplicationController</title>
<path fill="none" stroke="black" d="M140,-176.5C140,-176.5 252,-176.5 252,-176.5 258,-176.5 264,-182.5 264,-188.5 264,-188.5 264,-258.5 264,-258.5 264,-264.5 258,-270.5 252,-270.5 252,-270.5 140,-270.5 140,-270.5 134,-270.5 128,-264.5 128,-258.5 128,-258.5 128,-188.5 128,-188.5 128,-182.5 134,-176.5 140,-176.5"/>
<text text-anchor="middle" x="196" y="-255.3" font-family="Times,serif" font-size="14.00">ApplicationController</text>
<polyline fill="none" stroke="black" points="128,-247.5 264,-247.5 "/>
<polyline fill="none" stroke="black" points="128,-223.5 264,-223.5 "/>
<polyline fill="none" stroke="black" points="128,-199.5 264,-199.5 "/>
<text text-anchor="start" x="136" y="-184.3" font-family="Times,serif" font-size="14.00">_layout</text>
</g>
<!-- PostsController -->
<g id="node3" class="node"><title>PostsController</title>
<path fill="none" stroke="black" d="M12,-0.5C12,-0.5 89,-0.5 89,-0.5 95,-0.5 101,-6.5 101,-12.5 101,-12.5 101,-216.5 101,-216.5 101,-222.5 95,-228.5 89,-228.5 89,-228.5 12,-228.5 12,-228.5 6,-228.5 0,-222.5 0,-216.5 0,-216.5 0,-12.5 0,-12.5 0,-6.5 6,-0.5 12,-0.5"/>
<text text-anchor="middle" x="50.5" y="-213.3" font-family="Times,serif" font-size="14.00">PostsController</text>
<polyline fill="none" stroke="black" points="0,-205.5 101,-205.5 "/>
<text text-anchor="start" x="8" y="-190.3" font-family="Times,serif" font-size="14.00">create</text>
<text text-anchor="start" x="8" y="-175.3" font-family="Times,serif" font-size="14.00">destroy</text>
<text text-anchor="start" x="8" y="-160.3" font-family="Times,serif" font-size="14.00">edit</text>
<text text-anchor="start" x="8" y="-145.3" font-family="Times,serif" font-size="14.00">index</text>
<text text-anchor="start" x="8" y="-130.3" font-family="Times,serif" font-size="14.00">new</text>
<text text-anchor="start" x="8" y="-115.3" font-family="Times,serif" font-size="14.00">reports</text>
<text text-anchor="start" x="8" y="-100.3" font-family="Times,serif" font-size="14.00">show</text>
<text text-anchor="start" x="8" y="-85.3" font-family="Times,serif" font-size="14.00">transaction</text>
<text text-anchor="start" x="8" y="-70.3" font-family="Times,serif" font-size="14.00">update</text>
<polyline fill="none" stroke="black" points="0,-62.5 101,-62.5 "/>
<polyline fill="none" stroke="black" points="0,-38.5 101,-38.5 "/>
<text text-anchor="start" x="8" y="-23.3" font-family="Times,serif" font-size="14.00">_layout</text>
<text text-anchor="start" x="8" y="-8.3" font-family="Times,serif" font-size="14.00">post_params</text>
</g>
</g>
</svg>
