<?xml version="1.0" encoding="UTF-8" standalone="no"?>
<!DOCTYPE svg PUBLIC "-//W3C//DTD SVG 1.1//EN"
 "http://www.w3.org/Graphics/SVG/1.1/DTD/svg11.dtd">
<!-- Generated by graphviz version 2.36.0 (20140111.2315)
 -->
<!-- Title: models_diagram Pages: 1 -->
<svg width="443pt" height="370pt"
 viewBox="0.00 0.00 443.00 370.00" xmlns="http://www.w3.org/2000/svg" xmlns:xlink="http://www.w3.org/1999/xlink">
<g id="graph0" class="graph" transform="scale(1 1) rotate(0) translate(4 366)">
<title>models_diagram</title>
<polygon fill="none" stroke="none" points="-4,4 -4,-366 439,-366 439,4 -4,4"/>
<!-- _diagram_info -->
<g id="node1" class="node"><title>_diagram_info</title>
<text text-anchor="start" x="7" y="-205.6" font-family="Times,serif" font-size="13.00">Models diagram</text>
<text text-anchor="start" x="7" y="-191.6" font-family="Times,serif" font-size="13.00">Date: Feb 13 2016 &#45; 08:31</text>
<text text-anchor="start" x="7" y="-177.6" font-family="Times,serif" font-size="13.00">Migration version: 20160213011236</text>
<text text-anchor="start" x="7" y="-163.6" font-family="Times,serif" font-size="13.00">Generated by RailRoady 1.4.2</text>
<text text-anchor="start" x="7" y="-149.6" font-family="Times,serif" font-size="13.00">http://railroady.prestonlee.com</text>
</g>
<!-- Post -->
<g id="node2" class="node"><title>Post</title>
<path fill="none" stroke="black" d="M243,-0.5C243,-0.5 423,-0.5 423,-0.5 429,-0.5 435,-6.5 435,-12.5 435,-12.5 435,-349.5 435,-349.5 435,-355.5 429,-361.5 423,-361.5 423,-361.5 243,-361.5 243,-361.5 237,-361.5 231,-355.5 231,-349.5 231,-349.5 231,-12.5 231,-12.5 231,-6.5 237,-0.5 243,-0.5"/>
<text text-anchor="middle" x="333" y="-346.3" font-family="Times,serif" font-size="14.00">Post</text>
<polyline fill="none" stroke="black" points="231,-338.5 435,-338.5 "/>
<text text-anchor="start" x="239" y="-323.3" font-family="Times,serif" font-size="14.00">id :INTEGER</text>
<text text-anchor="start" x="239" y="-308.3" font-family="Times,serif" font-size="14.00">customer_name :varchar(255)</text>
<text text-anchor="start" x="239" y="-293.3" font-family="Times,serif" font-size="14.00">customer_email :varchar(255)</text>
<text text-anchor="start" x="239" y="-278.3" font-family="Times,serif" font-size="14.00">customer_phone_no :varchar(255)</text>
<text text-anchor="start" x="239" y="-263.3" font-family="Times,serif" font-size="14.00">house_name :varchar(255)</text>
<text text-anchor="start" x="239" y="-248.3" font-family="Times,serif" font-size="14.00">house_address :varchar(255)</text>
<text text-anchor="start" x="239" y="-233.3" font-family="Times,serif" font-size="14.00">description :varchar(255)</text>
<text text-anchor="start" x="239" y="-218.3" font-family="Times,serif" font-size="14.00">post_type_select :varchar(255)</text>
<text text-anchor="start" x="239" y="-203.3" font-family="Times,serif" font-size="14.00">created_at :datetime</text>
<text text-anchor="start" x="239" y="-188.3" font-family="Times,serif" font-size="14.00">updated_at :datetime</text>
<text text-anchor="start" x="239" y="-173.3" font-family="Times,serif" font-size="14.00">image_file_name :varchar(255)</text>
<text text-anchor="start" x="239" y="-158.3" font-family="Times,serif" font-size="14.00">image_content_type :varchar(255)</text>
<text text-anchor="start" x="239" y="-143.3" font-family="Times,serif" font-size="14.00">image_file_size :integer</text>
<text text-anchor="start" x="239" y="-128.3" font-family="Times,serif" font-size="14.00">image_updated_at :datetime</text>
<text text-anchor="start" x="239" y="-113.3" font-family="Times,serif" font-size="14.00">status :varchar(255)</text>
<text text-anchor="start" x="239" y="-98.3" font-family="Times,serif" font-size="14.00">rent_price :varchar(255)</text>
<text text-anchor="start" x="239" y="-83.3" font-family="Times,serif" font-size="14.00">latitude :float</text>
<text text-anchor="start" x="239" y="-68.3" font-family="Times,serif" font-size="14.00">longitude :float</text>
<text text-anchor="start" x="239" y="-53.3" font-family="Times,serif" font-size="14.00">country :varchar(255)</text>
<text text-anchor="start" x="239" y="-38.3" font-family="Times,serif" font-size="14.00">city :varchar(255)</text>
<text text-anchor="start" x="239" y="-23.3" font-family="Times,serif" font-size="14.00">google_address :varchar(255)</text>
<text text-anchor="start" x="239" y="-8.3" font-family="Times,serif" font-size="14.00">user_id :integer</text>
</g>
</g>
</svg>
